<svg xmlns="http://www.w3.org/2000/svg" width="480" height="360" viewBox="0 0 480 360" role="img">
  <defs>
    <linearGradient id="bg" x1="0%" y1="0%" x2="100%" y2="100%">
      <stop offset="0%" stop-color="#1d4ed8" stop-opacity="0.15" />
      <stop offset="100%" stop-color="#38bdf8" stop-opacity="0.25" />
    </linearGradient>
    <linearGradient id="accent" x1="0%" y1="0%" x2="100%" y2="0%">
      <stop offset="0%" stop-color="#38bdf8" />
      <stop offset="100%" stop-color="#2563eb" />
    </linearGradient>
  </defs>
  <rect width="480" height="360" rx="32" fill="url(#bg)" />
  <g transform="translate(48 60)" fill="none" stroke="#2563eb" stroke-width="2" stroke-linecap="round">
    <path d="M0 120c40-80 120-80 160 0s120 80 160 0 120-80 160 0" opacity="0.2" />
    <path d="M20 160c36-60 108-60 144 0s108 60 144 0 108-60 144 0" opacity="0.3" />
  </g>
  <g transform="translate(90 120)">
    <rect x="0" y="20" width="180" height="120" rx="18" fill="#ffffff" stroke="#e2e8f0" />
    <rect x="24" y="54" width="96" height="12" rx="6" fill="#94a3b8"/>
    <rect x="24" y="78" width="132" height="12" rx="6" fill="#cbd5f5"/>
    <rect x="24" y="102" width="72" height="12" rx="6" fill="#2563eb"/>
    <circle cx="48" cy="-8" r="24" fill="#2563eb" />
    <circle cx="132" cy="-8" r="24" fill="#38bdf8" />
  </g>
  <g transform="translate(274 156)">
    <rect x="0" y="0" width="160" height="140" rx="18" fill="#ffffff" stroke="#dbeafe" />
    <rect x="26" y="26" width="108" height="12" rx="6" fill="#1e293b"/>
    <rect x="26" y="54" width="72" height="12" rx="6" fill="#bae6fd"/>
    <rect x="26" y="82" width="92" height="12" rx="6" fill="#2563eb"/>
    <path d="M26 110h92" stroke="url(#accent)" stroke-width="6" stroke-linecap="round" />
  </g>
  <g fill="#ffffff" stroke="#2563eb" stroke-width="2" transform="translate(150 40)">
    <circle cx="0" cy="0" r="18" />
    <circle cx="80" cy="12" r="18" />
    <circle cx="164" cy="0" r="18" />
  </g>
</svg>
